<svg height="100" viewBox="0 0 100 100" width="100" xmlns="http://www.w3.org/2000/svg"><rect fill="#19486f" height="53" rx="9.12" width="53" x="23.5" y="25.99"/><g fill="#2e73b8"><rect height="53" rx="9.12" width="53" x="23.5" y="23.51"/><path d="m60 14.4h4v13.65h-4z"/><path d="m36 14.4h4v13.65h-4z"/><path d="m54 14.4h4v13.65h-4z"/><path d="m42 14.4h4v13.65h-4z"/><path d="m48 14.4h4v13.65h-4z"/><path d="m14.4 60h18.1v4h-18.1z"/><path d="m14.4 42h18.1v4h-18.1z"/><path d="m14.4 54h18.1v4h-18.1z"/><path d="m14.4 48h18.1v4h-18.1z"/><path d="m14.4 36h18.1v4h-18.1z"/><path d="m36 69.88h4v15.72h-4z"/><path d="m60 69.88h4v15.72h-4z"/><path d="m42 69.88h4v15.72h-4z"/><path d="m54 69.88h4v15.72h-4z"/><path d="m48 69.88h4v15.72h-4z"/><path d="m69.67 54h15.94v4h-15.94z"/><path d="m69.67 36h15.94v4h-15.94z"/><path d="m69.67 48h15.94v4h-15.94z"/><path d="m69.67 42h15.94v4h-15.94z"/><path d="m69.67 60h15.94v4h-15.94z"/></g><path d="m62.27 67.23h-24.54a5 5 0 0 1 -5-5v-24.5a5 5 0 0 1 5-5h24.54a5 5 0 0 1 5 5v24.54a5 5 0 0 1 -5 4.96zm-24.54-31.46a2 2 0 0 0 -2 2v24.5a2 2 0 0 0 2 2h24.54a2 2 0 0 0 2-2v-24.54a2 2 0 0 0 -2-2z" fill="#fff"/><path d="m59.17 46.5h-5.67v-5.67h-7v5.67h-5.67v7h5.67v5.67h7v-5.67h5.67z" fill="#fff"/></svg>